<?xml version="1.0" encoding="utf-8"?>
<!-- Generator: Adobe Illustrator 14.0.0, SVG Export Plug-In . SVG Version: 6.00 Build 43363)  -->
<!DOCTYPE svg PUBLIC "-//W3C//DTD SVG 1.1//EN" "http://www.w3.org/Graphics/SVG/1.1/DTD/svg11.dtd">
<svg version="1.1" id="Layer_1" xmlns="http://www.w3.org/2000/svg" xmlns:xlink="http://www.w3.org/1999/xlink" x="0px" y="0px"
	 width="200px" height="408.311px" viewBox="414.727 -123.668 200 408.311" enable-background="new 414.727 -123.668 200 408.311"
	 xml:space="preserve">
<g>
	<path fill="#231F20" d="M514.727-115.357c-55.229,0-100,44.771-100,100c0,55.228,44.771,100,100,100s100-44.771,100-100
		C614.727-70.586,569.955-115.357,514.727-115.357z M514.727,74.516c-49.636,0-89.873-40.237-89.873-89.873
		s40.237-89.873,89.873-89.873S604.6-64.993,604.6-15.357S564.362,74.516,514.727,74.516z"/>
	<path fill="none" d="M459.103,31.096c0.441,1.311,4.77,1.106,10.614-0.299l-1.848-5.96
		C462.286,27.284,458.655,29.771,459.103,31.096z"/>
	<path fill="none" d="M454.9-35.639c-6.488,2.188-9.976,9.224-7.788,15.709c0.849,2.517,2.431,4.574,4.423,6.029
		c-0.231-0.49-0.44-1-0.615-1.521c-2.582-7.651,1.528-15.952,9.18-18.533c1.594-0.537,3.213-0.765,4.796-0.759
		C461.951-36.359,458.352-36.804,454.9-35.639z"/>
	<path fill="none" d="M481.738,1.281c-0.301-0.89-3.55-0.641-7.997,0.458l1.504,3.957C479.366,3.898,482.033,2.156,481.738,1.281z"
		/>
	<path fill="none" d="M455.91,9.995c0.281,0.836,3.191,0.662,7.26-0.282l-1.224-3.931C458.086,7.501,455.625,9.15,455.91,9.995z"/>
	<path fill="none" d="M548.019-47.127c-0.497,0.045-1.026-0.064-1.451-0.335l-15.053-9.404l-6.146,8.831
		c-0.838,1.198-2.737,1.28-3.665,0.169l-10.841-13.035l-8.31,14.784c-0.702,1.26-2.594,1.517-3.628,0.495l-7.652-7.565
		l-13.09,11.977c-1.863,1.709-4.87-0.573-3.439-2.612l14.114-20.255c0.381-0.541,1.003-0.895,1.692-0.958
		c0.685-0.062,1.361,0.172,1.833,0.635l6.86,6.789l8.272-18.113c0.318-0.709,1.046-1.209,1.874-1.284
		c0.831-0.077,1.625,0.284,2.075,0.923l11.414,16.314l5.516-7.921c0.754-1.085,2.58-1.251,3.52-0.322l17.558,17.36
		C550.716-49.416,549.852-47.295,548.019-47.127z"/>
	<path fill="none" d="M569.639,0.831c4.167,0.271,7.067-0.031,7.209-0.9c0.145-0.881-2.553-2.108-6.64-3.178L569.639,0.831z"/>
	<path fill="none" d="M577.643-25.961c-0.087,0.542-0.21,1.079-0.359,1.601c1.729-1.76,2.956-4.047,3.385-6.668
		c1.105-6.755-3.479-13.129-10.235-14.236c-3.596-0.589-7.075,0.436-9.713,2.537c1.561-0.263,3.195-0.301,4.855-0.03
		C573.544-41.453,578.947-33.93,577.643-25.961z"/>
	<path fill="none" d="M566.603,22.698c5.995,0.438,10.299-0.064,10.522-1.429c0.227-1.381-3.761-3.244-9.667-4.752L566.603,22.698z"
		/>
	<path fill="none" d="M491.984,20.003c-0.456-1.352-5.023-1.099-11.129,0.418l2.242,5.89
		C488.749,23.846,492.433,21.332,491.984,20.003z"/>
	<path fill="none" d="M542.879,15.664c-0.228,1.385,3.815,3.267,9.792,4.779l1.256-6.175
		C547.656,13.763,543.107,14.256,542.879,15.664z"/>
	<path fill="none" d="M549.947-4.474c-0.149,0.911,2.766,2.196,7.124,3.302l0.841-4.149C553.347-5.682,550.1-5.401,549.947-4.474z"
		/>
	<g>
		<path fill="#231F20" d="M581.763-49.438c0.427-2.597-5.557-5.834-14.209-8.046l1.61-11.622c6.194,0.307,10.721-0.597,11.026-2.464
			c0.31-1.889-3.787-4.226-9.862-5.913l1.664-11.966c6.78-1.432,12.328-6.867,13.516-14.122c1.543-9.425-4.854-18.324-14.284-19.868
			c-9.432-1.543-18.324,4.853-19.866,14.278c-1.238,7.564,2.631,14.769,9.074,18.131l-2.334,11.478
			c-6.639-0.438-11.589,0.457-11.909,2.415c-0.314,1.922,3.938,4.3,10.195,5.996l-2.326,11.41
			c-9.099-0.723-15.984,0.437-16.416,3.072c-0.423,2.587,5.534,5.818,14.156,8.026l-5.181,25.475
			c-0.611,3.224-1.682,12.145-1.915,13.556c6.201-2.352,12.056-5.407,17.461-9.077l3.839-27.647
			C574.77-45.708,581.343-46.868,581.763-49.438z M552.671-52.892c-5.977-1.512-10.02-3.395-9.792-4.78
			c0.229-1.408,4.777-1.9,11.048-1.396L552.671-52.892z M557.071-74.508c-4.358-1.106-7.273-2.391-7.124-3.302
			c0.152-0.927,3.399-1.208,7.965-0.847L557.071-74.508z M577.125-52.067c-0.224,1.365-4.527,1.867-10.522,1.429l0.855-6.181
			C573.364-55.311,577.352-53.448,577.125-52.067z M576.848-73.406c-0.142,0.869-3.042,1.171-7.209,0.9l0.569-4.078
			C574.295-75.513,576.992-74.287,576.848-73.406z M560.72-116.063c2.638-2.101,6.117-3.125,9.713-2.537
			c6.757,1.106,11.341,7.481,10.235,14.236c-0.429,2.621-1.655,4.908-3.385,6.668c0.149-0.522,0.272-1.06,0.359-1.601
			c1.305-7.969-4.099-15.492-12.067-16.796C563.915-116.364,562.28-116.326,560.72-116.063z"/>
	</g>
	<g>
		<path fill="#231F20" d="M493.799-18.591l-9.147-24.374c8.148-3.58,13.502-7.735,12.664-10.219
			c-0.854-2.53-7.837-2.556-16.697-0.365l-4.148-10.881c5.899-2.689,9.709-5.726,9.087-7.571c-0.635-1.881-5.664-1.96-12.144-0.45
			l-4.168-10.947c5.812-4.364,8.46-12.102,6.01-19.364c-3.054-9.05-12.866-13.917-21.922-10.861
			c-9.054,3.054-13.921,12.875-10.867,21.924c2.349,6.965,8.706,11.427,15.629,11.739l3.587,11.538
			c-5.722,2.65-9.384,5.621-8.771,7.436c0.604,1.793,5.217,1.95,11.28,0.64l3.476,11.206c-8.178,3.589-13.555,7.754-12.713,10.248
			c0.832,2.467,7.506,2.545,16.058,0.51l8.216,26.457c5.894,2.73,12.153,4.804,18.687,6.123
			C497.336-7.306,494.351-16.627,493.799-18.591z M455.91-63.341c-0.285-0.845,2.176-2.494,6.036-4.213l1.224,3.931
			C459.102-62.679,456.191-62.505,455.91-63.341z M460.1-107.291c-7.651,2.581-11.762,10.882-9.18,18.533
			c0.175,0.521,0.384,1.031,0.615,1.521c-1.992-1.455-3.574-3.513-4.423-6.029c-2.188-6.485,1.3-13.52,7.788-15.709
			c3.451-1.165,7.051-0.719,9.995,0.925C463.312-108.056,461.693-107.828,460.1-107.291z M459.103-42.24
			c-0.447-1.326,3.184-3.812,8.767-6.26l1.848,5.96C463.872-41.133,459.544-40.928,459.103-42.24z M473.741-71.597
			c4.447-1.099,7.696-1.348,7.997-0.458c0.295,0.875-2.372,2.617-6.493,4.415L473.741-71.597z M480.855-52.915
			c6.105-1.517,10.673-1.77,11.129-0.418c0.448,1.33-3.235,3.844-8.887,6.308L480.855-52.915z"/>
	</g>
	<g>
		<path fill="#231F20" d="M525.1,42.103c-15.725,0-29.17,9.755-34.616,23.542c3.599,1.075,7.296,1.92,11.077,2.512
			c4.179-8.804,13.146-14.893,23.539-14.893c8.362,0,15.799,3.947,20.564,10.074c3.544-1.395,6.97-3.026,10.261-4.867
			C549.236,48.594,537.926,42.103,525.1,42.103z"/>
		<path fill="#231F20" d="M525.1-9.983c-33.42,0-62.547,18.363-77.854,45.547c1.705,2.255,3.521,4.421,5.438,6.493
			c13.232-24.35,39.033-40.879,68.694-40.879v37.375c1.226-0.11,2.466-0.17,3.721-0.17c14.192,0,26.696,7.226,34.037,18.199
			c14.15-8.754,25.525-21.564,32.501-36.811C575.288,1.511,551.537-9.983,525.1-9.983z"/>
	</g>
	<path fill="#231F20" d="M525.1,37.762c-17.617,0-32.707,11.023-38.738,26.534c0.39,0.139,0.778,0.279,1.17,0.412
		c5.86-15.029,20.49-25.707,37.568-25.707c13.945,0,26.259,7.121,33.497,17.916c0.354-0.215,0.702-0.437,1.052-0.656
		C552.19,45.116,539.488,37.762,525.1,37.762z"/>
	<polygon fill="#231F20" points="548.733,-33.564 540.554,6.242 553.472,7.069 558.949,4.175 562.163,-18.679 	"/>
	<polygon fill="#231F20" points="492.021,-23.329 499.009,-5.473 487.021,1.488 482.643,0.741 478.161,-15.357 	"/>
</g>
<g>
	<path fill="#231F20" d="M514.727,84.642c-55.229,0-100,44.771-100,100s44.771,100,100,100s99.999-44.771,99.999-100
		S569.955,84.642,514.727,84.642z M514.727,274.515c-49.636,0-89.873-40.237-89.873-89.873s40.237-89.873,89.873-89.873
		s89.873,40.237,89.873,89.873S564.362,274.515,514.727,274.515z"/>
	<path fill="none" d="M459.103,231.096c0.441,1.311,4.77,1.106,10.614-0.3l-1.848-5.96
		C462.286,227.284,458.655,229.77,459.103,231.096z"/>
	<path fill="none" d="M454.9,164.36c-6.488,2.188-9.976,9.224-7.788,15.709c0.849,2.517,2.431,4.574,4.423,6.029
		c-0.232-0.49-0.44-1.001-0.615-1.521c-2.582-7.65,1.528-15.951,9.18-18.532c1.594-0.537,3.213-0.766,4.796-0.76
		C461.951,163.64,458.352,163.195,454.9,164.36z"/>
	<path fill="none" d="M481.737,201.281c-0.3-0.891-3.549-0.642-7.996,0.458l1.504,3.957
		C479.366,203.897,482.033,202.155,481.737,201.281z"/>
	<path fill="none" d="M455.91,209.995c0.281,0.836,3.191,0.662,7.26-0.282l-1.224-3.931
		C458.086,207.501,455.625,209.15,455.91,209.995z"/>
	<path fill="none" d="M548.019,152.873c-0.498,0.045-1.026-0.064-1.451-0.335l-15.053-9.404l-6.146,8.831
		c-0.839,1.198-2.737,1.28-3.665,0.168l-10.841-13.035l-8.31,14.784c-0.702,1.261-2.594,1.518-3.628,0.495l-7.652-7.564
		l-13.09,11.977c-1.863,1.709-4.87-0.572-3.439-2.611l14.113-20.256c0.382-0.541,1.004-0.895,1.693-0.958
		c0.685-0.062,1.361,0.173,1.833,0.636l6.86,6.789l8.272-18.113c0.318-0.709,1.046-1.209,1.874-1.284
		c0.831-0.077,1.625,0.284,2.074,0.923l11.414,16.314l5.517-7.921c0.754-1.085,2.58-1.252,3.52-0.322l17.558,17.361
		C550.716,150.584,549.852,152.705,548.019,152.873z"/>
	<path fill="none" d="M569.638,200.831c4.168,0.271,7.068-0.031,7.21-0.901c0.145-0.881-2.553-2.107-6.641-3.177L569.638,200.831z"
		/>
	<path fill="none" d="M577.643,174.039c-0.087,0.542-0.211,1.079-0.359,1.602c1.729-1.76,2.956-4.048,3.385-6.669
		c1.105-6.754-3.479-13.129-10.236-14.235c-3.595-0.589-7.075,0.436-9.712,2.537c1.561-0.264,3.195-0.302,4.854-0.03
		C573.543,158.547,578.947,166.07,577.643,174.039z"/>
	<path fill="none" d="M566.603,222.698c5.995,0.438,10.299-0.064,10.522-1.429c0.227-1.382-3.761-3.245-9.667-4.753L566.603,222.698
		z"/>
	<path fill="none" d="M491.984,220.002c-0.456-1.352-5.024-1.099-11.129,0.418l2.241,5.891
		C488.749,223.846,492.433,221.332,491.984,220.002z"/>
	<path fill="none" d="M542.878,215.664c-0.227,1.385,3.816,3.267,9.793,4.779l1.256-6.176
		C547.656,213.763,543.107,214.256,542.878,215.664z"/>
	<path fill="none" d="M549.947,195.526c-0.149,0.911,2.765,2.196,7.124,3.302l0.841-4.148
		C553.346,194.317,550.1,194.599,549.947,195.526z"/>
	<path d="M531.915,131.985c-0.939-0.93-2.766-0.763-3.52,0.322l-5.517,7.921l-11.414-16.314c-0.449-0.639-1.243-1-2.074-0.923
		c-0.828,0.075-1.556,0.575-1.874,1.284l-8.272,18.113l-6.86-6.789c-0.472-0.463-1.148-0.698-1.833-0.636
		c-0.689,0.063-1.312,0.417-1.693,0.958l-14.113,20.256c-1.431,2.039,1.576,4.32,3.439,2.611l13.09-11.977l7.652,7.564
		c1.034,1.022,2.926,0.766,3.628-0.495l8.31-14.784l10.841,13.035c0.928,1.112,2.826,1.03,3.665-0.168l6.146-8.831l15.053,9.404
		c0.425,0.271,0.953,0.38,1.451,0.335c1.833-0.168,2.697-2.289,1.454-3.526L531.915,131.985z"/>
	<g>
		<path fill="#231F20" d="M581.763,223.898c0.426-2.598-5.558-5.835-14.209-8.046l1.609-11.622
			c6.195,0.307,10.722-0.598,11.026-2.465c0.311-1.89-3.786-4.227-9.861-5.913l1.664-11.967c6.78-1.432,12.328-6.866,13.516-14.121
			c1.542-9.425-4.854-18.324-14.284-19.867c-9.432-1.544-18.324,4.853-19.867,14.277c-1.237,7.564,2.632,14.77,9.075,18.131
			l-2.334,11.479c-6.64-0.438-11.589,0.457-11.909,2.415c-0.314,1.922,3.937,4.3,10.194,5.996l-2.325,11.41
			c-9.099-0.723-15.985,0.437-16.416,3.071c-0.423,2.587,5.534,5.818,14.156,8.026l-5.182,25.475
			c-0.611,3.225-1.681,12.145-1.914,13.556c6.201-2.352,12.055-5.407,17.461-9.077l3.839-27.646
			C574.77,227.628,581.343,226.467,581.763,223.898z M552.671,220.443c-5.977-1.513-10.02-3.395-9.793-4.779
			c0.229-1.408,4.778-1.9,11.049-1.396L552.671,220.443z M557.071,198.828c-4.359-1.105-7.273-2.391-7.124-3.302
			c0.152-0.927,3.398-1.209,7.965-0.847L557.071,198.828z M577.125,221.269c-0.224,1.364-4.527,1.867-10.522,1.429l0.855-6.182
			C573.364,218.024,577.352,219.887,577.125,221.269z M576.848,199.929c-0.142,0.87-3.042,1.172-7.21,0.901l0.569-4.078
			C574.295,197.822,576.992,199.049,576.848,199.929z M560.72,157.273c2.637-2.102,6.117-3.126,9.712-2.537
			c6.758,1.106,11.342,7.481,10.236,14.235c-0.429,2.621-1.656,4.909-3.385,6.669c0.148-0.522,0.272-1.06,0.359-1.602
			c1.305-7.969-4.1-15.492-12.068-16.796C563.915,156.971,562.28,157.01,560.72,157.273z"/>
	</g>
	<g>
		<path fill="#231F20" d="M493.799,254.745l-9.147-24.374c8.148-3.579,13.502-7.734,12.664-10.219
			c-0.854-2.53-7.837-2.556-16.697-0.364l-4.148-10.882c5.899-2.689,9.709-5.727,9.087-7.571c-0.635-1.881-5.664-1.96-12.144-0.449
			l-4.168-10.946c5.812-4.364,8.459-12.103,6.01-19.364c-3.054-9.05-12.866-13.917-21.922-10.861
			c-9.054,3.055-13.921,12.874-10.867,21.924c2.349,6.965,8.706,11.427,15.629,11.739l3.587,11.537
			c-5.722,2.65-9.384,5.621-8.771,7.436c0.604,1.793,5.217,1.95,11.279,0.641l3.477,11.206c-8.178,3.589-13.555,7.754-12.713,10.247
			c0.832,2.468,7.506,2.546,16.058,0.511l8.216,26.457c5.894,2.729,12.152,4.804,18.687,6.122
			C497.335,266.029,494.351,256.709,493.799,254.745z M455.91,209.995c-0.285-0.845,2.176-2.494,6.036-4.213l1.224,3.931
			C459.102,210.657,456.191,210.831,455.91,209.995z M460.1,166.045c-7.651,2.581-11.762,10.882-9.18,18.532
			c0.175,0.521,0.383,1.031,0.615,1.521c-1.992-1.455-3.574-3.513-4.423-6.029c-2.188-6.485,1.3-13.521,7.788-15.709
			c3.451-1.165,7.051-0.72,9.995,0.925C463.312,165.279,461.693,165.508,460.1,166.045z M459.103,231.096
			c-0.447-1.326,3.184-3.812,8.767-6.26l1.848,5.96C463.872,232.203,459.544,232.407,459.103,231.096z M473.741,201.739
			c4.447-1.1,7.696-1.349,7.996-0.458c0.296,0.874-2.371,2.616-6.492,4.415L473.741,201.739z M480.855,220.42
			c6.104-1.517,10.673-1.77,11.129-0.418c0.448,1.33-3.235,3.845-8.888,6.309L480.855,220.42z"/>
	</g>
</g>
</svg>
