<?xml version="1.0" encoding="utf-8"?>
<!-- Generator: Adobe Illustrator 14.0.0, SVG Export Plug-In . SVG Version: 6.00 Build 43363)  -->
<!DOCTYPE svg PUBLIC "-//W3C//DTD SVG 1.1//EN" "http://www.w3.org/Graphics/SVG/1.1/DTD/svg11.dtd">
<svg version="1.1" id="Isolation_Mode" xmlns="http://www.w3.org/2000/svg" xmlns:xlink="http://www.w3.org/1999/xlink" x="0px"
	 y="0px" width="454.01px" height="454.008px" viewBox="0 0 454.01 454.008" enable-background="new 0 0 454.01 454.008"
	 xml:space="preserve">
<circle cx="-793.844" cy="-51.63" r="50"/>
<path d="M-328.765,297.102c32.213,0,66.571-19.33,66.571-19.33c3.557,0,6.444,2.888,6.444,6.443v126.921
	c0,1.739-8.896,16.479-23.695,29.602v-9.354l-0.011-0.022c-0.058-2.812-1.194-5.355-3.019-7.234l-0.028-0.07l-14.793-14.791
	l-0.069-0.028c-1.879-1.819-4.424-2.961-7.236-3.019l-0.024-0.012h-46.136l-0.025,0.012c-2.81,0.058-5.356,1.192-7.235,3.019
	l-0.07,0.028l-14.792,14.791l-0.03,0.07c-1.822,1.879-2.959,4.423-3.017,7.234l-0.012,0.022v9.371
	c-14.798-13.111-23.692-27.85-23.692-29.617V284.215c0-3.557,2.885-6.443,6.442-6.443
	C-393.193,277.771-360.979,297.102-328.765,297.102z M-356.938,456.452c5.227,2.555,10.783,4.573,16.611,5.807v-12.038
	c0-3.806,3.086-6.892,6.891-6.892h11.485c3.803,0,6.892,3.086,6.892,6.892v12.037c5.825-1.238,11.384-3.257,16.61-5.813v-29.851
	h-58.489V456.452L-356.938,456.452z M-99.058,329.566c0,125.371-101.634,227.004-227.005,227.004s-227.004-101.633-227.004-227.004
	c0-125.372,101.633-227.003,227.004-227.003S-99.058,204.197-99.058,329.566z M-232.092,191.447c0-2.588-1.536-4.812-3.741-5.828
	c-0.032-0.016-0.061-0.031-0.096-0.046c-0.084-0.038-0.171-0.07-0.259-0.104c-0.106-0.043-0.219-0.085-0.336-0.123
	c-0.104-0.034-0.211-0.061-0.317-0.09c-0.072-0.019-0.143-0.039-0.217-0.055c-0.381-0.089-0.778-0.14-1.181-0.159
	c-0.038-0.001-0.07-0.007-0.109-0.01c-43.002-1.976-181.245-3.298-181.245,67.262c0,59.729-2.533,155.929,4.54,168.705
	c7.068,12.774,44.504,54.89,87.021,54.89c42.517,0,78.285-40.998,84.82-54.89c6.522-13.868,7.388-186.511,7.388-186.511
	c0-3.545-2.872-6.42-6.42-6.42c-1.149,0-2.227,0.307-3.162,0.836l-0.002-0.002l-26.658,13.42l38.465-46.745
	C-232.659,194.462-232.092,193.022-232.092,191.447z"/>
<rect x="-802.076" y="-62.26" transform="matrix(0.707 -0.7072 0.7072 0.707 -198.7678 -581.4426)" fill="#FFFFFF" width="2" height="22.828"/>
<rect x="-787.127" y="-62.069" transform="matrix(0.707 0.7072 -0.7072 0.707 -266.6719 540.9218)" fill="#FFFFFF" width="2" height="21.415"/>
<rect x="-818.037" y="-62.306" transform="matrix(0.7069 -0.7074 0.7074 0.7069 -203.5067 -592.8496)" fill="#FFFFFF" width="2" height="22.83"/>
<rect x="-803.127" y="-62.07" transform="matrix(0.7071 0.7071 -0.7071 0.7071 -271.2562 552.1458)" fill="#FFFFFF" width="2" height="21.415"/>
<rect x="-788.076" y="-62.26" transform="matrix(0.707 -0.7072 0.7072 0.707 -194.6654 -571.5415)" fill="#FFFFFF" width="2" height="22.828"/>
<rect x="-773.086" y="-62.033" transform="matrix(0.7072 0.707 -0.707 0.7072 -262.3301 530.8267)" fill="#FFFFFF" width="2" height="21.416"/>
<circle fill="#FFFFFF" cx="-793.844" cy="-73.63" r="2"/>
<circle fill="#FFFFFF" cx="-781.844" cy="-73.63" r="2"/>
<circle fill="#FFFFFF" cx="-807.844" cy="-73.63" r="2"/>
<circle fill="#FFFFFF" cx="-793.844" cy="-31.63" r="2"/>
<circle fill="#FFFFFF" cx="-781.844" cy="-31.63" r="2"/>
<circle fill="#FFFFFF" cx="-807.844" cy="-31.63" r="2"/>
<rect x="-550.429" y="-14.33" transform="matrix(-0.7071 -0.7071 0.7071 -0.7071 -883.1244 -390.4627)" width="56" height="4"/>
<circle cx="-542.236" cy="-32.137" r="2"/>
<circle cx="-526.679" cy="8.875" r="2"/>
<rect x="-543.242" y="-34.533" transform="matrix(-0.707 -0.7072 0.7072 -0.707 -901.8824 -440.729)" width="2" height="2"/>
<rect x="-548.971" y="-9.376" transform="matrix(-0.7071 -0.7071 0.7071 -0.7071 -892.6738 -384.5096)" width="45.999" height="4"/>
<circle cx="-542.236" cy="-23.652" r="2"/>
<rect x="-510.703" y="9.297" transform="matrix(-0.707 -0.7072 0.7072 -0.707 -877.3367 -342.9002)" width="2" height="2"/>
<rect x="-543.228" y="-26.059" transform="matrix(-0.7071 -0.7071 0.7071 -0.7071 -907.9225 -426.192)" width="2" height="2"/>
<rect x="-527.696" y="6.438" transform="matrix(-0.7077 -0.7065 0.7065 -0.7077 -904.7025 -359.4044)" width="2.001" height="2.002"/>
<rect x="-509.58" y="8.247" transform="matrix(-0.7072 -0.707 0.707 -0.7072 -877.3033 -332.8539)" width="4" height="13.999"/>
<rect x="-513.845" y="8.027" transform="matrix(-0.707 -0.7072 0.7072 -0.707 -881.5099 -343.1703)" width="4" height="5.999"/>
<rect x="-529.016" y="12.538" transform="matrix(-0.7071 -0.7071 0.7071 -0.7071 -899.7025 -343.6038)" width="16" height="4.001"/>
<circle cx="-528.093" cy="-1.024" r="2"/>
<rect x="-529.088" y="-3.431" transform="matrix(-0.707 -0.7072 0.7072 -0.707 -899.7184 -377.6293)" width="2" height="2"/>
<rect x="-531.022" y="4.059" transform="matrix(-0.7071 -0.7071 0.7071 -0.7071 -893.7245 -358.0746)" width="20.001" height="4.001"/>
<polygon points="-516.781,21.603 -513.951,18.775 -511.123,21.603 "/>
<polygon points="-512.537,17.36 -515.365,20.188 -518.195,17.36 "/>
<polygon points="-505.464,4.632 -502.636,7.459 -505.464,10.288 "/>
<polygon points="-501.224,11.704 -504.052,8.875 -501.224,6.047 "/>
<polygon points="-515.365,14.532 -513.951,13.118 -512.537,14.532 "/>
<polygon points="-508.294,10.29 -509.708,8.875 -508.294,7.46 "/>
<rect x="-496.95" y="-14.331" transform="matrix(0.7071 -0.7071 0.7071 0.7071 -128.6328 -335.2096)" width="55.999" height="4"/>
<circle cx="-449.144" cy="-32.137" r="2"/>
<circle cx="-464.699" cy="8.875" r="2"/>
<rect x="-450.142" y="-34.534" transform="matrix(0.707 -0.7072 0.7072 0.707 -107.8896 -327.4719)" width="2" height="2"/>
<rect x="-488.41" y="-9.379" transform="matrix(0.7071 -0.7071 0.7071 0.7071 -131.0983 -331.2565)" width="45.998" height="4"/>
<circle cx="-449.144" cy="-23.652" r="2"/>
<rect x="-482.677" y="9.296" transform="matrix(0.707 -0.7072 0.7072 0.707 -148.4206 -337.6387)" width="2" height="2"/>
<rect x="-450.14" y="-26.048" transform="matrix(0.707 -0.7072 0.7072 0.707 -113.8905 -324.984)" width="2" height="2"/>
<rect x="-465.683" y="6.431" transform="matrix(0.7072 -0.707 0.707 0.7072 -141.3005 -326.3482)" width="1.999" height="2.002"/>
<rect x="-485.791" y="8.255" transform="matrix(0.7073 -0.7069 0.7069 0.7073 -152.394 -337.5377)" width="4.001" height="13.999"/>
<rect x="-481.564" y="7.998" transform="matrix(0.707 -0.7072 0.7072 0.707 -148.2974 -335.9386)" width="4" height="5.999"/>
<rect x="-478.33" y="12.57" transform="matrix(0.7071 -0.7071 0.7071 0.7071 -148.0667 -328.3134)" width="15.999" height="4.001"/>
<circle cx="-463.285" cy="-1.024" r="2"/>
<rect x="-464.288" y="-3.427" transform="matrix(0.7076 -0.7066 0.7066 0.7076 -133.753 -328.0768)" width="2.001" height="2"/>
<rect x="-480.358" y="4.059" transform="matrix(0.7071 -0.7071 0.7071 0.7071 -142.055 -330.8236)" width="20.001" height="4"/>
<polygon points="-474.599,21.603 -477.427,18.775 -480.255,21.603 "/>
<polygon points="-478.841,17.36 -476.013,20.188 -473.185,17.36 "/>
<polygon points="-485.914,4.632 -488.742,7.459 -485.914,10.288 "/>
<polygon points="-490.156,11.704 -487.328,8.875 -490.156,6.047 "/>
<polygon points="-476.013,14.532 -477.427,13.118 -478.841,14.532 "/>
<polygon points="-483.083,10.29 -481.669,8.875 -483.083,7.46 "/>
<rect x="-497.144" y="-35.045" width="4" height="42"/>
<g>
	<path d="M-566.608-160.816l-55.32,55.321l-0.006,0.004l-0.062,0.046l-0.055,0.055c-10.742,10.983-3.683,19.716-1.264,22.129
		c2.035,2.038,5.414,4.466,9.952,4.466c4.05,0,8.047-1.943,11.88-5.777l48.48-48.486h14.387l-55.765,55.765
		c-5.521,5.521-11.544,8.32-17.9,8.32c-6.279,0-12.539-2.8-17.627-7.885c-5.426-5.432-8.195-12.488-7.599-19.359l0.102-1.157
		l-1.159,0.072c-0.449,0.028-0.905,0.042-1.354,0.042c-6.344,0-12.592-2.751-17.594-7.748c-6.541-6.545-11.086-17.533-4.463-28.905
		h12.662l-0.135,0.135c-4.051,4.051-6.065,8.258-5.986,12.506c0.065,3.566,1.627,6.976,4.516,9.86
		c2.034,2.038,5.413,4.466,9.951,4.466c4.051,0,8.047-1.943,11.88-5.776l48.092-48.096h14.387 M-564.194-161.816h-17.215
		l-48.384,48.389c-3.938,3.937-7.747,5.483-11.174,5.483c-3.61,0-6.795-1.72-9.244-4.173c-4.874-4.869-6.877-12.606,1.472-20.953
		l1.842-1.842h-15.645c-6.946,11.395-3.232,23.051,4.323,30.612c4.812,4.807,11.286,8.041,18.301,8.041
		c0.471,0,0.942-0.014,1.418-0.044c-0.672,7.712,2.661,14.923,7.887,20.153c4.822,4.819,11.303,8.178,18.334,8.178
		c6.031,0,12.467-2.472,18.607-8.613l57.473-57.472h-17.215l-48.774,48.78c-3.937,3.937-7.747,5.484-11.173,5.484
		c-3.611,0-6.795-1.72-9.245-4.173c-4.834-4.824-6.806-12.466,1.271-20.724c0.021-0.015,0.04-0.025,0.062-0.045L-564.194-161.816
		L-564.194-161.816z"/>
</g>
<g>
	<path d="M-621.336-104.69c-7.6,7.77-6.303,14.993-2.097,19.838c0.603-0.803,1.294-1.614,2.097-2.433
		c0.021-0.015,0.04-0.025,0.062-0.045l57.08-57.081v-17.406l-57.08,57.081C-621.295-104.715-621.315-104.705-621.336-104.69z"/>
	<path d="M-593.671-76.584c-13.301,13.302-27.983,9.388-36.941,0.435c-5.226-5.229-8.559-12.441-7.887-20.153
		c-7.558,0.471-14.583-2.868-19.719-7.997c-4.397-4.401-7.489-10.191-7.938-16.509l-0.083,14.927l0.036,0.077
		c-0.267,7.245,3.035,13.956,7.985,18.91c5.136,5.13,12.161,8.468,19.719,7.997c-0.671,7.712,2.661,14.924,7.887,20.153
		c8.958,8.953,23.642,12.866,36.942-0.436l57.471-57.471v-17.406L-593.671-76.584z"/>
</g>
<g>
	<circle cx="-2342.828" cy="679.229" r="4.125"/>
</g>
<g>
	<circle cx="-2256.061" cy="679.229" r="4.125"/>
</g>
<path d="M-92.283-263.845c-2.923,0-5.288,2.365-5.288,5.288v29.538l-54.428-54.428c-2.065-2.065-5.412-2.065-7.478,0
	c-2.065,2.066-2.065,5.412,0,7.479l61.905,61.905v48.5l-32.667-32.667l-20.77-41.539c-1.306-2.613-4.482-3.661-7.095-2.365
	c-2.613,1.307-3.672,4.482-2.365,7.096l14.056,28.112l-28.113-14.056c-2.613-1.296-5.789-0.248-7.095,2.365
	c-1.307,2.613-0.248,5.789,2.365,7.096l41.539,20.77l37.955,37.955l-37.015,37.015h-31.557l17.325-34.65
	c1.307-2.613,0.248-5.789-2.365-7.095c-2.613-1.291-5.784-0.243-7.095,2.365l-19.69,39.38H-300.53l-19.689-39.38
	c-1.312-2.608-4.478-3.656-7.095-2.365c-2.613,1.307-3.671,4.482-2.365,7.095l17.325,34.65h-31.557l-37.016-37.015l37.955-37.955
	l41.539-20.77c2.613-1.307,3.671-4.482,2.365-7.096c-1.312-2.612-4.482-3.661-7.095-2.365l-28.112,14.056l14.056-28.112
	c1.307-2.613,0.248-5.789-2.365-7.096c-2.613-1.296-5.778-0.248-7.095,2.365l-20.77,41.539l-32.667,32.667v-48.5l61.906-61.905
	c2.065-2.065,2.065-5.412,0-7.479c-2.066-2.065-5.412-2.065-7.478,0l-54.428,54.428v-29.538c0-2.923-2.365-5.288-5.288-5.288
	c-2.923,0-5.288,2.365-5.288,5.288v42.303v63.455c0,0.687,0.14,1.373,0.408,2.019c0.269,0.651,0.656,1.234,1.146,1.725
	l42.292,42.293c0.491,0.491,1.074,0.878,1.725,1.146c0.646,0.269,1.333,0.408,2.019,0.408h38.177l41.301,165.205
	c0.589,2.355,2.701,4.007,5.128,4.007h42.303c2.427,0,4.539-1.652,5.128-4.007l41.301-165.205h38.177
	c0.687,0,1.373-0.14,2.019-0.408c0.651-0.269,1.234-0.656,1.725-1.146l42.292-42.293c0.491-0.49,0.878-1.074,1.146-1.725
	c0.269-0.646,0.408-1.332,0.408-2.019v-63.455v-42.303C-86.995-261.479-89.36-263.845-92.283-263.845z M-223.323,53.428h-34.041
	l-39.659-158.636h113.359L-223.323,53.428z"/>
<rect x="-1322.041" y="174.05" fill="#878686" width="52.045" height="166.545"/>
<polygon fill="#878686" points="-1322.041,174.05 -1269.995,122.004 -1269.995,174.05 "/>
<rect x="-1405.312" y="298.959" fill="#878686" width="52.045" height="52.045"/>
<polygon fill="#878686" points="-1405.312,298.959 -1353.268,246.913 -1353.268,298.959 "/>
<rect x="-1322.041" y="309.368" fill="#878686" width="52.045" height="41.636"/>
<rect x="-1353.268" y="278.141" fill="#878686" width="31.227" height="72.863"/>
<rect x="-1269.995" y="174.05" width="52.045" height="166.545"/>
<polygon points="-1217.95,174.05 -1269.995,122.004 -1269.995,174.05 "/>
<rect x="-1186.722" y="298.959" width="52.045" height="52.045"/>
<polygon points="-1134.677,298.959 -1186.722,246.913 -1186.722,298.959 "/>
<rect x="-1269.995" y="309.368" width="52.045" height="41.636"/>
<rect x="-1217.95" y="278.141" width="31.229" height="72.863"/>
<rect x="-1322.041" y="-96.587" fill="#878686" width="52.045" height="166.545"/>
<polygon fill="#878686" points="-1322.041,69.958 -1269.995,122.004 -1269.995,69.958 "/>
<rect x="-1405.312" y="-106.996" fill="#878686" width="52.045" height="52.046"/>
<polygon fill="#878686" points="-1405.312,-54.95 -1353.268,-2.905 -1353.268,-54.95 "/>
<rect x="-1322.041" y="-106.996" fill="#878686" width="52.045" height="41.637"/>
<rect x="-1353.268" y="-106.996" fill="#878686" width="31.227" height="72.864"/>
<rect x="-1269.995" y="-96.587" width="52.045" height="166.545"/>
<polygon points="-1217.95,69.958 -1269.995,122.004 -1269.995,69.958 "/>
<rect x="-1186.722" y="-106.996" width="52.045" height="52.046"/>
<polygon points="-1134.677,-54.95 -1186.722,-2.905 -1186.722,-54.95 "/>
<rect x="-1269.995" y="-106.996" width="52.045" height="41.637"/>
<rect x="-1217.95" y="-106.996" width="31.229" height="72.864"/>
<rect x="-1488.586" y="69.958" fill="#878686" width="166.545" height="52.045"/>
<polygon fill="#878686" points="-1322.041,69.958 -1269.995,122.004 -1322.041,122.004 "/>
<rect x="-1498.995" y="-13.314" fill="#878686" width="52.045" height="52.045"/>
<polygon fill="#878686" points="-1446.95,-13.314 -1394.904,38.731 -1446.95,38.731 "/>
<rect x="-1498.995" y="69.958" fill="#878686" width="41.637" height="52.045"/>
<rect x="-1498.995" y="38.731" fill="#878686" width="72.864" height="31.227"/>
<rect x="-1488.586" y="122.004" width="166.545" height="52.046"/>
<polygon points="-1322.041,174.05 -1269.995,122.004 -1322.041,122.004 "/>
<rect x="-1498.995" y="205.277" width="52.045" height="52.045"/>
<polygon points="-1446.95,257.322 -1394.904,205.277 -1446.95,205.277 "/>
<rect x="-1498.995" y="122.004" width="41.637" height="52.046"/>
<rect x="-1498.995" y="174.05" width="72.864" height="31.228"/>
<rect x="-1217.95" y="69.958" fill="#878686" width="166.545" height="52.045"/>
<polygon fill="#878686" points="-1217.95,69.958 -1269.995,122.004 -1217.95,122.004 "/>
<rect x="-1093.041" y="-13.314" fill="#878686" width="52.045" height="52.045"/>
<polygon fill="#878686" points="-1093.041,-13.314 -1145.086,38.731 -1093.041,38.731 "/>
<rect x="-1082.631" y="69.958" fill="#878686" width="41.636" height="52.045"/>
<rect x="-1113.858" y="38.731" fill="#878686" width="72.863" height="31.227"/>
<rect x="-1217.95" y="122.004" width="166.545" height="52.046"/>
<polygon points="-1217.95,174.05 -1269.995,122.004 -1217.95,122.004 "/>
<rect x="-1093.041" y="205.277" width="52.045" height="52.045"/>
<polygon points="-1093.041,257.322 -1145.086,205.277 -1093.041,205.277 "/>
<rect x="-1082.631" y="122.004" width="41.636" height="52.046"/>
<rect x="-1113.858" y="174.05" width="72.863" height="31.228"/>
<rect x="-1611.004" y="-534.253" fill="#878686" width="69.375" height="222"/>
<polygon fill="#878686" points="-1541.629,-534.253 -1611.004,-603.628 -1611.004,-534.253 "/>
<rect x="-1500.004" y="-367.754" fill="#878686" width="69.375" height="69.375"/>
<polygon fill="#878686" points="-1430.629,-367.754 -1500.004,-437.129 -1500.004,-367.754 "/>
<rect x="-1611.004" y="-353.879" fill="#878686" width="69.375" height="55.5"/>
<rect x="-1541.629" y="-395.504" fill="#878686" width="41.625" height="97.125"/>
<rect x="-1680.379" y="-534.253" width="69.375" height="222"/>
<polygon points="-1680.379,-534.253 -1611.004,-603.628 -1611.004,-534.253 "/>
<rect x="-1791.379" y="-367.754" width="69.375" height="69.375"/>
<polygon points="-1791.379,-367.754 -1722.004,-437.129 -1722.004,-367.754 "/>
<rect x="-1680.379" y="-353.879" width="69.375" height="55.5"/>
<rect x="-1722.004" y="-395.504" width="41.625" height="97.125"/>
<rect x="-1788.995" y="151.004" width="60" height="20"/>
<rect x="-1768.995" y="131.004" width="20" height="60"/>
<circle cx="-1782.995" cy="-20.996" r="20"/>
<g>
	<path d="M-2281.192,653.855c-0.828,0-1.638-0.411-2.114-1.162c-0.739-1.166-0.393-2.711,0.774-3.449
		c1.687-1.069,16.589-10.39,23.255-10.39c0.043,0,0.086,0.001,0.129,0.001c6.034,0.113,18.859,8.716,21.369,10.439
		c1.138,0.781,1.427,2.337,0.646,3.476s-2.335,1.427-3.476,0.646c-5.335-3.662-15.111-9.496-18.632-9.562
		c-0.023-0.001-0.046-0.001-0.07-0.001c-3.909,0-14.653,5.881-20.545,9.613C-2280.272,653.73-2280.735,653.855-2281.192,653.855
		L-2281.192,653.855z"/>
</g>
<g>
	<path d="M-2325.192,663.854c-0.053,0-0.105-0.002-0.158-0.005l-32-2c-1.378-0.086-2.425-1.273-2.339-2.651
		c0.086-1.378,1.286-2.414,2.651-2.339l32,2c1.378,0.086,2.425,1.273,2.339,2.651
		C-2322.783,662.835-2323.883,663.854-2325.192,663.854L-2325.192,663.854z"/>
</g>
<line fill="none" stroke="#000000" stroke-width="50" stroke-linecap="round" x1="-1314.995" y1="945.004" x2="-1314.995" y2="1227.004"/>
<circle cx="-1314.995" cy="881.004" r="26"/>
<line fill="none" stroke="#000000" stroke-width="50" stroke-linecap="round" x1="-1228.995" y1="945.004" x2="-1228.995" y2="1227.004"/>
<circle cx="-1228.995" cy="881.004" r="26"/>
<path fill="none" stroke="#000000" stroke-width="50" stroke-linecap="round" d="M-1522.995,1231.004c0,57.438,46.562,104,104,104
	s104-46.562,104-104"/>
<path fill="none" stroke="#000000" stroke-width="50" stroke-linecap="round" d="M-1226.995,1231.004c0,57.438,46.562,104,104,104
	s104-46.562,104-104"/>
<g>
	<path d="M-2385.575,608.618c0,0,28.306,27.937,60.577-5.779c42.868,33.234,118.339,34.198,125.083-4.818l-11.078,10.116
		c0,0-34.492-76.292-105.779-34.868C-2375.054,548.221-2385.575,608.618-2385.575,608.618z"/>
</g>
<g>
	<path d="M-2230.861,621.706l-6.042,105.807l-30.335,31.5l-20.332-20.833l-22.13,0.845l-21.789,20.988l-31.789-24.675
		l-1.036-118.811l-6.591,0.665l-1.335,133.177l55.169,69.121l30.936,5.155l58.263-84.589l2.3-114.864L-2230.861,621.706z
		 M-2268.943,771.865c-5.226,2.558-10.785,4.574-16.61,5.812v-3.999c0-3.806-3.089-6.892-6.892-6.892h-11.485
		c-3.805,0-6.891,3.086-6.891,6.892v4c-5.828-1.231-11.384-3.252-16.611-5.807v-5.492c0,0,15.695,0.299,28.695-12.701
		c13,13,29.794,12.701,29.794,12.701V771.865z"/>
</g>
<path d="M-2283.994,724.242c-1.569-3.789-4.037-4.354-5.369-4.354c-5.43,0-6.743,2.793-7.262,3.561
	c-1.675,3.174,2.719,4.006,4.44,2.285c0.9-0.752,1.697-0.862,2.736-0.862c0.253,0.123,0.943,1.048,1.344,2.995
	c0.566,2.747,0.116,5.048-0.276,5.504c-0.742,0.742-1.51,1.14-2.138,1.363c0.013-0.198,0.03-0.395,0.03-0.596
	c0-1.381-1.119-2.5-2.5-2.5s-2.5,1.119-2.5,2.5c0,2.344-1.907,4.25-4.25,4.25s-4.25-1.906-4.25-4.25c0-1.381-1.119-2.5-2.5-2.5
	s-2.5,1.119-2.5,2.5c0,0.067,0.009,0.134,0.01,0.201c-0.714-0.257-1.423-0.608-1.909-1.095c-0.334-0.334-0.793-1.735-0.717-3.682
	c0.081-2.072,0.709-3.607,1.259-4.157c0.54-0.54,3.106,0.096,5.081,1.257c0.764,0.453,1.71,0.467,2.487,0.038
	c0.777-0.431,1.268-1.24,1.289-2.129l1.5-63.5c0.032-1.38-1.06-2.525-2.44-2.558c-1.386-0.071-2.526,1.061-2.559,2.44l-1.413,59.801
	c-2.379-0.718-5.388-0.979-7.48,1.115c-2.28,2.279-2.662,6.003-2.72,7.498c-0.059,1.515,0.035,5.269,2.178,7.411
	c2.607,2.606,6.755,3.042,7.442,3.097c1.696,2.136,4.309,3.512,7.242,3.512c2.879,0,5.455-1.323,7.152-3.393l0.647,0.017
	c0.025,0.001,0.062,0.001,0.11,0.001c0.729,0,4.046-0.17,6.983-3.107C-2282.069,734.13-2282.58,727.655-2283.994,724.242z"/>
<path d="M-2370.395,658.032c-7.076,0-12.812,5.736-12.812,12.812s5.736,12.812,12.812,12.812V658.032z M-2370.395,678.586
	c-4.275,0-7.741-3.466-7.741-7.741s3.466-7.741,7.741-7.741V678.586z"/>
<path d="M-2227.706,683.657c7.076,0,12.812-5.736,12.812-12.812s-5.736-12.812-12.812-12.812V683.657z M-2227.706,663.104
	c4.275,0,7.741,3.466,7.741,7.741s-3.466,7.741-7.741,7.741V663.104z"/>
<circle fill="none" stroke="#000000" stroke-width="10" cx="-2549.661" cy="1280.725" r="170.621"/>
<g>
	<circle cx="-2593.738" cy="1267.159" r="4.125"/>
</g>
<g>
	<circle cx="-2506.971" cy="1267.159" r="4.125"/>
</g>
<g>
	<path d="M-2532.103,1241.785c-0.828,0-1.638-0.411-2.114-1.162c-0.739-1.166-0.393-2.711,0.774-3.449
		c1.687-1.069,16.589-10.39,23.255-10.39c0.043,0,0.086,0.001,0.129,0.001c6.034,0.113,18.859,8.716,21.369,10.439
		c1.138,0.781,1.427,2.337,0.646,3.476s-2.335,1.427-3.476,0.646c-5.335-3.662-15.111-9.496-18.632-9.562
		c-0.023-0.001-0.046-0.001-0.07-0.001c-3.909,0-14.653,5.881-20.545,9.613C-2531.182,1241.66-2531.645,1241.785-2532.103,1241.785
		L-2532.103,1241.785z"/>
</g>
<g>
	<path d="M-2576.103,1251.784c-0.053,0-0.105-0.002-0.158-0.005l-32-2c-1.378-0.086-2.425-1.273-2.339-2.651
		c0.086-1.378,1.286-2.414,2.651-2.339l32,2c1.378,0.086,2.425,1.273,2.339,2.651
		C-2573.693,1250.765-2574.793,1251.784-2576.103,1251.784L-2576.103,1251.784z"/>
</g>
<g>
	<path d="M-2636.485,1196.548c0,0,28.306,27.937,60.577-5.779c42.868,33.234,118.339,34.198,125.083-4.818l-11.078,10.116
		c0,0-34.492-76.292-105.779-34.868C-2625.964,1136.15-2636.485,1196.548-2636.485,1196.548z"/>
</g>
<g>
	<path d="M-2481.771,1209.636l-6.042,105.807l-30.335,31.5l-20.332-20.833l-22.13,0.845l-21.789,20.988l-31.789-24.675
		l-1.036-118.811l-6.591,0.665l-1.335,133.177l55.169,69.121l30.936,5.155l58.263-84.589l2.3-114.864L-2481.771,1209.636z
		 M-2519.854,1359.795c-5.226,2.558-10.785,4.574-16.61,5.812v-3.999c0-3.806-3.089-6.892-6.892-6.892h-11.485
		c-3.805,0-6.891,3.086-6.891,6.892v4c-5.828-1.231-11.384-3.252-16.611-5.807v-5.492c0,0,15.695,0.299,28.695-12.701
		c13,13,29.794,12.701,29.794,12.701V1359.795z"/>
</g>
<path d="M-2534.904,1312.172c-1.569-3.789-4.037-4.354-5.369-4.354c-5.43,0-6.743,2.793-7.262,3.561
	c-1.675,3.174,2.719,4.006,4.44,2.285c0.9-0.752,1.697-0.862,2.736-0.862c0.253,0.123,0.943,1.048,1.344,2.995
	c0.566,2.747,0.116,5.048-0.276,5.504c-0.742,0.742-1.51,1.14-2.138,1.363c0.013-0.198,0.03-0.395,0.03-0.596
	c0-1.381-1.119-2.5-2.5-2.5s-2.5,1.119-2.5,2.5c0,2.344-1.907,4.25-4.25,4.25s-4.25-1.906-4.25-4.25c0-1.381-1.119-2.5-2.5-2.5
	s-2.5,1.119-2.5,2.5c0,0.067,0.009,0.134,0.01,0.201c-0.714-0.257-1.423-0.608-1.909-1.095c-0.334-0.334-0.793-1.735-0.717-3.682
	c0.081-2.072,0.709-3.607,1.259-4.157c0.54-0.54,3.106,0.096,5.081,1.257c0.764,0.453,1.71,0.467,2.487,0.038
	c0.777-0.431,1.268-1.24,1.289-2.129l1.5-63.5c0.032-1.38-1.06-2.525-2.44-2.558c-1.386-0.071-2.526,1.061-2.559,2.44l-1.413,59.801
	c-2.379-0.718-5.388-0.979-7.48,1.115c-2.28,2.279-2.662,6.003-2.72,7.498c-0.059,1.515,0.035,5.269,2.178,7.411
	c2.607,2.606,6.755,3.042,7.442,3.097c1.696,2.136,4.309,3.512,7.242,3.512c2.879,0,5.455-1.323,7.152-3.393l0.647,0.017
	c0.025,0.001,0.062,0.001,0.11,0.001c0.729,0,4.046-0.17,6.983-3.107C-2532.979,1322.06-2533.49,1315.585-2534.904,1312.172z"/>
<path d="M-2621.305,1245.962c-7.076,0-12.812,5.736-12.812,12.812s5.736,12.812,12.812,12.812V1245.962z M-2621.305,1266.516
	c-4.275,0-7.741-3.466-7.741-7.741s3.466-7.741,7.741-7.741V1266.516z"/>
<path d="M-2478.616,1271.587c7.076,0,12.812-5.736,12.812-12.812s-5.736-12.812-12.812-12.812V1271.587z M-2478.616,1251.033
	c4.275,0,7.741,3.466,7.741,7.741s-3.466,7.741-7.741,7.741V1251.033z"/>
</svg>
