<?xml version="1.0" encoding="utf-8"?>
<!-- Generator: Adobe Illustrator 14.0.0, SVG Export Plug-In . SVG Version: 6.00 Build 43363)  -->
<!DOCTYPE svg PUBLIC "-//W3C//DTD SVG 1.1//EN" "http://www.w3.org/Graphics/SVG/1.1/DTD/svg11.dtd">
<svg version="1.1" id="Layer_1" xmlns="http://www.w3.org/2000/svg" xmlns:xlink="http://www.w3.org/1999/xlink" x="0px" y="0px"
	 width="150px" height="13px" viewBox="-1.192 -27.765 150 13" enable-background="new -1.192 -27.765 150 13" xml:space="preserve"
	>
<path d="M34.213-19.744c-1.853-1.311-10.637-8-15.898-8c-5.261,0-16.16,6.711-17.426,7.492c-0.877,0.539-1.152,1.684-0.613,2.561
	c0.349,0.564,2.709,3.41,3.679,2.827c4.669-2.799,10.289-9.157,14.282-9.157c3.996,0,9.746,4.065,13.683,6.852
	c0.841,0.592,2.673,0.078,3.27-0.762C35.779-18.773,35.051-19.151,34.213-19.744L34.213-19.744z"/>
<path d="M71.617-19.744c-1.853-1.311-10.637-6.999-15.898-6.999c-5.261,0-16.16,5.71-17.426,6.491
	c-0.877,0.539-1.152,1.684-0.613,2.561c0.349,0.564,2.709,3.41,3.679,2.827c4.669-2.799,10.289-8.156,14.282-8.156
	c3.996,0,9.746,3.064,13.683,5.851c0.841,0.592,2.673,0.078,3.27-0.762C73.183-18.773,72.455-19.151,71.617-19.744L71.617-19.744z"
	/>
<path d="M109.023-19.744c-1.853-1.311-10.637-3.996-15.898-3.996c-5.261,0-16.16,2.707-17.426,3.488
	c-0.877,0.539-1.152,1.684-0.613,2.561c0.349,0.564,2.709,3.41,3.679,2.827c4.669-2.799,10.289-5.153,14.282-5.153
	c3.996,0,9.746,0.062,13.683,2.848c0.841,0.592,2.673,0.078,3.27-0.762C110.588-18.773,109.861-19.151,109.023-19.744
	L109.023-19.744z"/>
<path d="M146.427-19.744c-1.853-1.311-10.637-1.994-15.898-1.994c-5.261,0-16.16,0.705-17.426,1.486
	c-0.877,0.539-1.152,1.684-0.613,2.561c0.349,0.564,2.709,3.41,3.679,2.827c4.927-2.066,10.289-3.151,14.282-3.151
	c3.996,0,9.054,0.562,13.683,0.846c1.136-0.036,2.673,0.078,3.27-0.762C147.992-18.773,147.265-19.151,146.427-19.744
	L146.427-19.744z"/>
</svg>
