<?xml version="1.0" encoding="utf-8"?>
<!-- Generator: Adobe Illustrator 14.0.0, SVG Export Plug-In . SVG Version: 6.00 Build 43363)  -->
<!DOCTYPE svg PUBLIC "-//W3C//DTD SVG 1.1//EN" "http://www.w3.org/Graphics/SVG/1.1/DTD/svg11.dtd">
<svg version="1.1" id="Layer_1" xmlns="http://www.w3.org/2000/svg" xmlns:xlink="http://www.w3.org/1999/xlink" x="0px" y="0px"
	 width="56.81px" height="75.369px" viewBox="-250.854 3.944 56.81 75.369" enable-background="new -250.854 3.944 56.81 75.369"
	 xml:space="preserve">
<path d="M-230.713,33.153l-10.197,0.704c-0.425,0-0.75,0.573-0.754,1.002c-0.003,0.429,0.312,0.549,0.742,0.552l9.964,0.078
	l0.049-0.001c0.407-0.022,0.731-0.357,0.734-0.77C-230.172,34.29-230.283,33.156-230.713,33.153z M-194.045,15.513
	c-0.971,1.98-4.085,1.937-4.085,1.937l-0.188-0.384c0,0,1.968-1.105,1.817-3.044c-0.817,1.146-2.781,1.291-3.186,0.746
	c-4.565-6.196-14.04-16.042-29.345-7.472c0.019-0.388,0.225-2.209,2.453-2.666c0.085-0.017,0.14-0.265,0.122-0.349
	c-0.019-0.084-0.101-0.139-0.185-0.121c-2.021,0.415-2.532,2.008-2.663,2.789c-0.265-0.465-0.566-1.371,0.288-2.401
	c0.056-0.066,0.198-0.278,0.132-0.357c-0.106-0.127-0.422-0.064-0.477,0.002c-1,1.206-0.537,2.376-0.195,2.943
	c-17.56-7.502-19.351,10.899-19.351,10.899s0.248,0.025,0.52,0.241c0.135,0.106,0.453,7.235,0.572,13.793
	c-0.471-0.138-0.928-0.136-1.303,0.132c-1.303,0.931-2.233,6.888-1.45,9.382c0.779,2.482,2.442,3.652,3.525,3.707l0.048,0.002
	c0.133,0.002,0.261-0.018,0.386-0.051c-0.144,8.627-0.417,16.268-0.119,16.883l0.221,0.354c0.074,0.11,0.891-1.229,0.998-1.085
	c0.108,0.148-0.176,2.195-0.034,2.383c3.205,4.219,13.33,15.023,15.349,15.455c0.233,0.051,0.537,0.075,0.898,0.081
	c0.278,0.006,0.516-2.194,0.854-2.212c0.146-0.008,1.293,2.078,1.448,2.064c3.643-0.26,8.753-1.385,9.82-1.777
	c1.216-0.448,10.844-12.688,13.388-16.494c0.106-0.162-0.513-2.061-0.438-2.184c0.13-0.203,1.246,0.904,1.279,0.824l0.019-0.054
	c0.21-0.812,0.53-7.146,0.897-14.31c0.134,0.037,0.268,0.061,0.395,0.062l0.048-0.001c1.063-0.021,2.511-1.127,3.345-3.541
	c0.837-2.424,0.493-8.285-0.759-9.235c-0.383-0.291-0.881-0.292-1.402-0.146c0.445-5.57,1.087-10.067,1.268-10.133
	C-196.789,20.713-194.973,19.52-194.045,15.513z M-246.972,44.052h-0.006c-0.341-0.018-1.474-0.574-2.184-2.836
	c-0.713-2.27,0.257-7.092,0.893-7.559c0.228-0.164,0.965,0.146,1.724,0.679l0.007,1.102c-0.216-0.023-0.431-0.015-0.637,0.08
	c-1.053,0.482-1.242,2.376-0.619,6.142c0.036,0.221,0.225,0.377,0.439,0.381l0.082-0.006c0.249-0.041,0.416-0.275,0.375-0.523
	c-0.75-4.527-0.047-5.097,0.103-5.166c0.068-0.032,0.162-0.023,0.263,0.002c0.002,0.798,0.002,1.604-0.001,2.416
	c-0.007,1.689-0.025,3.398-0.05,5.083C-246.734,43.966-246.877,44.054-246.972,44.052z M-215.094,69.25
	c-0.396,0.44-3.371,1.375-5.188,1.734c0,0,0.168-0.811,0.179-1.501c0.008-0.424-0.178-2.136-0.265-2.375
	c-0.296-0.81-1.069-1.394-1.981-1.405c0,0-1.354,0.104-1.807,0.096c-0.442-0.006-1.763-0.146-1.763-0.146
	c-0.975-0.014-1.805,0.624-2.077,1.511c-0.061,0.189,0.007,0.744,0.04,1.34c0.032,0.597-0.076,0.865-0.085,1.432
	c-0.01,0.562-0.092,0.939-0.092,0.939c-1.808-0.408-4.958-1.565-5.139-1.879c-0.179-0.311-0.295-4.638-0.295-4.638l8.688-0.881
	c0,0,0.322-1.058,0.521-1.119l0.569,0.979l8.798-0.895c0,0,0.793,1.669,0.82,2.506C-214.143,65.787-214.7,68.813-215.094,69.25z
	 M-204.641,39.875c0,0.312-1.947,14.59-2.334,15.319c-0.385,0.729-7.47,5.716-7.47,5.716c-1.737-2.213-6.146-2.061-6.146-2.061
	c0.232-0.133,0.476-0.305,0.711-0.533c0.875-0.85,0.746-2.863,0.319-3.932c-0.472-1.184-1.234-1.37-1.648-1.377
	c-1.688-0.022-2.108,0.839-2.272,1.076c-0.535,0.979,0.827,1.256,1.369,0.729c0.283-0.229,0.531-0.262,0.854-0.256
	c0.076,0.039,0.286,0.33,0.403,0.938c0.164,0.855,0.016,1.568-0.108,1.709c-0.233,0.229-0.476,0.348-0.671,0.414l0.012-0.187
	c0.006-0.429-0.336-0.781-0.768-0.787c-0.43-0.006-0.78,0.337-0.787,0.767c-0.011,0.729-0.61,1.312-1.34,1.303
	c-0.728-0.012-1.312-0.61-1.302-1.34c0.006-0.43-0.336-0.783-0.766-0.789c-0.431-0.006-0.782,0.338-0.788,0.769l0.002,0.062
	c-0.221-0.084-0.44-0.195-0.589-0.351c-0.104-0.104-0.239-0.542-0.207-1.146c0.035-0.646,0.234-1.119,0.41-1.287
	c0.17-0.166,0.964,0.043,1.571,0.412c0.236,0.146,0.53,0.153,0.773,0.021c0.243-0.13,0.397-0.379,0.41-0.654l0.182-11.584
	l0.562-8.145c0.016-0.429-0.604-0.628-1.03-0.644c-0.301-0.034-0.506,0.157-0.522,0.585l-0.561,8.122l-0.14,10.457
	c-0.736-0.234-1.672-0.328-2.33,0.312c-0.72,0.697-0.854,1.854-0.878,2.316c-0.025,0.473-0.014,1.639,0.644,2.312
	c0.401,0.413,0.923,0.654,1.373,0.799c0,0-5.688-0.23-7.133,3.167c0,0,0.106-0.335-0.453-0.965
	c-0.562-0.629-6.797-3.702-7.136-4.483c-0.341-0.781-0.989-14.723-0.989-14.973c-0.389,0.473-1.638-0.486-1.653-0.654
	c-0.014-0.168,1.407,0.071,1.787-0.861c-0.754-0.012-1.915-0.146-1.89-0.271c0.023-0.125,1.729-0.471,1.739-1.136
	c0.005-0.186,0.159-17.426,0.159-17.426c3.333,0.59,6.863-0.161,11.494-4.864c8.243,6.578,19.344,9.271,27.927,7.416l-0.578,12.781
	c-0.005,0.236,0.739,0.516,1.185,0.699c-0.011,0.134,0.011,0.267,0.092,0.367c-0.321,0.208-0.892,0.482-1.186,0.397
	c-0.055,0.556,1.343,0.451,1.347,0.556C-202.983,38.796-204.2,40.126-204.641,39.875z M-200.058,33.854
	c0.61,0.475,1.431,5.233,0.667,7.442c-0.76,2.197-1.886,2.713-2.221,2.721h-0.005c-0.055-0.001-0.184-0.044-0.345-0.109
	c0.095-1.845,0.191-3.723,0.291-5.562c0.03-0.581,0.066-1.151,0.103-1.722c0.258-0.184,0.482-0.273,0.605-0.189
	c0.11,0.077,0.632,0.7-0.271,5.279c-0.048,0.244,0.068,0.492,0.259,0.553l0.082,0.014c0.163,0.004,0.312-0.138,0.354-0.348
	c0.75-3.802,0.725-5.746-0.079-6.3c-0.271-0.187-0.578-0.155-0.885-0.027l0.101-1.434
	C-200.784,33.873-200.226,33.728-200.058,33.854z"/>
</svg>
