<?xml version="1.0" encoding="utf-8"?>
<!-- Generator: Adobe Illustrator 21.0.0, SVG Export Plug-In . SVG Version: 6.00 Build 0)  -->
<svg version="1.1" id="Layer_1" xmlns="http://www.w3.org/2000/svg" xmlns:xlink="http://www.w3.org/1999/xlink" x="0px" y="0px"
	 width="185.7px" height="247.9px" viewBox="0 0 185.7 247.9" style="enable-background:new 0 0 185.7 247.9;" xml:space="preserve"
	>
<style type="text/css">
	.st0{display:none;opacity:0.25;}
	.st1{display:inline;}
	.st2{fill:#313031;}
</style>
<g class="st0">
	<path class="st1" d="M440.3,46.7l49-18.7l89,27l0.7,28.7v13.7l7.7-4.7l3,6.3l1.3,11c0,0-2.8,10.4-6.3,10.7
		c-3.6,0.2-6.7-2.3-6.7-2.3l-1,47.7l-14.7,20.7l-41.3,45l-39.3-6l-26.3-31.3l-17.3-20l1.6-50.2l-4.9,1.9l-6-6.3l-1.7-7.3l4-15.7
		l3.3,2h4.7l1.3-11.7l0.3-21L440.3,46.7z"/>
</g>
<g>
	<path class="st2" d="M49.9,114.8c-2.2,0-4,0.5-4.1,2.7c0,2.2,1.7,4,4,4.1c2.2,0,4-1.7,4.1-4C53.9,115.4,52.2,114.9,49.9,114.8z"/>
	<path class="st2" d="M122.6,114.2c-2.1,0-3.6,2.9-3.6,5c0,2.2,2.8,3.1,4.9,3.1s3.8-1.7,3.9-3.9
		C127.8,116.3,124.7,114.2,122.6,114.2z"/>
	<path class="st2" d="M67.5,96.3l-31.9,2.2c-1.3,0-2.4,1.8-2.4,3.1c0,1.3,1,1.7,2.3,1.7l31.2,0.2c0.1,0,0.1,0,0.2,0
		c1.3-0.1,2.3-1.1,2.3-2.4C69.2,99.9,68.8,96.3,67.5,96.3z"/>
	<path class="st2" d="M182.3,41.1c-3,6.2-12.8,6.1-12.8,6.1s-0.3-0.6-0.6-1.2c0,0,6.2-3.5,5.7-9.5c-2.6,3.6-8.7,4-10,2.3
		C150.3,19.4,121.3-11.8,73.4,15c0.1-1.3,0.2-5.1,7.1-6.5c0.3-0.1,0.3-2.3,0.3-2.5c-0.1-0.3-2-0.9-2.2-0.9c-6.3,1.3-6.7,5.9-7.1,8.3
		c-0.8-1.5-1.3-3.4,1.3-6.6c0.2-0.2-0.4-1.4-0.6-1.6c-0.3-0.4-3.5,0.2-3.6,0.4c-3.1,3.8,1.4,7.5,2.5,9.3C16.1-8.7,10.5,49,10.5,49
		s0.8,0.1,1.6,0.8c0.4,0.3,1.4,22.7,1.8,43.2c-1.5-0.4-2.9-0.4-4.1,0.4c-4.1,2.9-7,21.6-4.5,29.4c2.4,7.8,7.6,11.4,11,11.6
		c0.1,0,0.1,0,0.2,0c0.4,0,0.8-0.1,1.2-0.2c-0.5,27-1.3,51-0.4,52.9c0.1,0.2,0.3,0.6,0.7,1.1c0.2,0.3,2.8-3.9,3.1-3.4
		c0.3,0.5-0.5,6.9-0.1,7.5c10,13.2,41.8,47.1,48.1,48.4c0.7,0.2,1.7,0.2,2.8,0.3c0.9,0,1.6-6.9,2.7-6.9c0.5,0,4.1,6.5,4.5,6.5
		c11.4-0.8,27.4-4.3,30.8-5.6c3.8-1.4,34-39.7,41.9-51.7c0.3-0.5-1.6-6.5-1.4-6.8c0.4-0.6,3.9,2.8,4,2.6c0,0,0-0.1,0.1-0.2
		c0.7-2.6,1.7-22.4,2.8-44.8c0.4,0.1,0.8,0.2,1.2,0.2c0,0,0.1,0,0.2,0c3.3-0.1,7.9-3.5,10.5-11.1s1.5-26-2.4-28.9
		c-1.2-0.9-2.8-0.9-4.4-0.5c1.4-17.4,3.4-31.5,4-31.7C173.7,57.3,179.4,53.6,182.3,41.1z M16.5,130.5L16.5,130.5
		c-1.1-0.1-4.6-1.8-6.9-8.9c-2.2-7.1,0.8-22.2,2.8-23.7c0.7-0.5,3,0.5,5.4,2.1c0,1.1,0,2.3,0,3.4c-0.7-0.1-1.4,0-2,0.3
		c-3.3,1.5-3.9,7.4-1.9,19.2c0.1,0.7,0.7,1.2,1.4,1.2c0.1,0,0.2,0,0.3,0c0.8-0.1,1.3-0.9,1.2-1.6c-2.4-14.2-0.1-16,0.3-16.2
		c0.2-0.1,0.5-0.1,0.8,0c0,2.5,0,5,0,7.6c0,5.3-0.1,10.7-0.2,15.9C17.3,130.2,16.8,130.5,16.5,130.5z M116.4,209.4
		c-1.2,1.4-10.6,4.3-16.2,5.4c0,0,2-18.7-4.5-17.3c0,0-6.6,2.4-8,2.4s-6.5-1.9-6.5-1.9c-7.8-0.8-5.6,16.5-5.6,16.5
		c-5.7-1.3-15.5-4.9-16.1-5.9s-0.9-20.5-0.9-20.5l27.2,3.2c0,0,1-3.3,1.6-3.5s1.8,3.1,1.8,3.1l27.6-6.8c0,0,2.5,9.2,2.6,11.8
		C119.4,198.5,117.6,208,116.4,209.4z M149.1,117.4c0,1-6.1,45.7-7.3,48c-1.2,2.3-23.4,13.9-23.4,13.9c-5.4-6.9-19.3-2.5-19.3-2.5
		c0.7-0.4,1.5-1,2.2-1.7c2.7-2.7,2.3-9,1-12.3c-1.5-3.7-3.9-4.3-5.2-4.3c-5.3-0.1-6.6,2.6-7.1,3.4c-1.7,3.1,2.6,3.9,4.3,2.3
		c0.9-0.7,1.7-0.8,2.7-0.8c0.2,0.1,0.9,1,1.3,2.9c0.5,2.7,0,4.9-0.3,5.4c-0.7,0.7-1.5,1.1-2.1,1.3c0-0.2,0-0.4,0-0.6
		c0-1.3-1.1-2.4-2.4-2.5c-1.3,0-2.4,1.1-2.5,2.4c0,2.3-1.9,4.1-4.2,4.1s-4.1-1.9-4.1-4.2c0-1.3-1.1-2.4-2.4-2.5
		c-1.3,0-2.4,1.1-2.5,2.4c0,0.1,0,0.1,0,0.2c-0.7-0.3-1.4-0.6-1.8-1.1c-0.3-0.3-0.7-1.7-0.6-3.6c0.1-2,0.7-3.5,1.3-4
		c0.5-0.5,3,0.1,4.9,1.3c0.7,0.5,1.7,0.5,2.4,0.1c0.8-0.4,1.3-1.2,1.3-2.1l0.6-36.3l1.8-25.5c0.1-1.3-1.9-2-3.2-2
		c-0.9-0.1-1.6,0.5-1.6,1.8l-1.8,25.4l-0.4,32.8c-2.3-0.7-5.2-1-7.3,1c-2.2,2.2-2.7,5.8-2.8,7.3c-0.1,1.5,0,5.1,2,7.2
		c1.3,1.3,2.9,2.1,4.3,2.5c0,0-17.8-6.7-22.3,3.9c0,0,0.3-1.1-1.4-3c-1.8-2-21.3-5.6-22.4-8s-3.1-46.1-3.1-46.9
		c-1.2,1.5-5.1-1.5-5.2-2.1c0-0.5,4.4,0.2,5.6-2.7c-2.4,0-6-0.5-5.9-0.9s5.4-1.5,5.5-3.6c0-0.6,0.5-54.6,0.5-54.6
		c10.4,1.8,21.5-0.5,36-15.2c25.8,20.6,60.6,29,87.5,23.2l-1.8,40c0,0.7,4.9,2.7,4,3.3c-1,0.7-2.8,1.5-3.7,1.2
		c-0.2,1.7,4.2,1.4,4.2,1.7C154.3,114,150.5,118.2,149.1,117.4z M163.5,98.5c1.9,1.5,4.5,16.4,2.1,23.3c-2.4,6.9-5.9,8.5-7,8.5l0,0
		c-0.2,0-0.6-0.1-1.1-0.3c0.3-5.8,0.6-11.7,0.9-17.4c0.1-1.8,0.2-3.6,0.3-5.4c0.8-0.6,1.5-0.8,1.9-0.6c0.4,0.2,2,2.2-0.9,16.5
		c-0.1,0.8,0.2,1.5,0.8,1.7c0.1,0,0.2,0,0.3,0c0.5,0,1-0.4,1.1-1.1c2.3-11.9,2.3-18-0.2-19.7c-0.8-0.6-1.8-0.5-2.8-0.1
		c0.1-1.5,0.2-3,0.3-4.5C161.2,98.6,162.9,98.1,163.5,98.5z"/>
</g>
<path class="st2" d="M142.8,98.1c-2.2-1.5-12.5-9.4-18.7-9.4s-19,7.9-20.5,8.8c-1,0.6-1.4,2-0.7,3c0.4,0.7,3.2,4,4.3,3.3
	c5.5-3.3,12.1-10.8,16.8-10.8c4.7,0,11.5,4.8,16.1,8.1c1,0.7,3.1,0.1,3.8-0.9C144.6,99.2,143.8,98.8,142.8,98.1L142.8,98.1z"/>
</svg>
